<svg width="22" height="30" viewBox="0 0 22 30" fill="none" xmlns="http://www.w3.org/2000/svg">
<path d="M10.9999 21.6666C10.2635 21.6666 9.66658 22.2635 9.66658 22.9999C9.66658 23.7363 10.2635 24.3333 10.9999 24.3333H11.0133C11.7496 24.3333 12.3466 23.7363 12.3466 22.9999C12.3466 22.2635 11.7496 21.6666 11.0133 21.6666H10.9999Z" fill="#292F36"/>
<path fill-rule="evenodd" clip-rule="evenodd" d="M4.33325 0.333252C2.12411 0.333252 0.333252 2.12411 0.333252 4.33325V25.6666C0.333252 27.8757 2.12411 29.6666 4.33325 29.6666H17.6666C19.8757 29.6666 21.6666 27.8757 21.6666 25.6666V4.33325C21.6666 2.12411 19.8757 0.333252 17.6666 0.333252H4.33325ZM2.99992 4.33325C2.99992 3.59687 3.59687 2.99992 4.33325 2.99992H17.6666C18.403 2.99992 18.9999 3.59687 18.9999 4.33325V25.6666C18.9999 26.403 18.403 26.9999 17.6666 26.9999H4.33325C3.59687 26.9999 2.99992 26.403 2.99992 25.6666V4.33325Z" fill="#292F36"/>
</svg>
